<?xml version="1.0" standalone="no"?><!DOCTYPE svg PUBLIC "-//W3C//DTD SVG 1.1//EN" "http://www.w3.org/Graphics/SVG/1.1/DTD/svg11.dtd"><svg t="1616072099001" class="icon" viewBox="0 0 1024 1024" version="1.1" xmlns="http://www.w3.org/2000/svg" p-id="4436" xmlns:xlink="http://www.w3.org/1999/xlink" width="200" height="200"><defs><style type="text/css"></style></defs><path d="M2008.501916 531.48989" p-id="4437"></path><path d="M766.521323 553.3692l-21.273513 0L553.783127 553.3692l0 191.459566 0 21.277606c0 105.742323 85.718267 191.468776 191.464683 191.468776l21.273513 0c105.741299 0 191.46366-85.726453 191.46366-191.468776l0-21.277606C957.984982 639.090537 872.267738 553.3692 766.521323 553.3692L766.521323 553.3692z" p-id="4438"></path><path d="M255.941672 553.3692c-105.741299 0-191.46366 85.72236-191.46366 191.459566l0 21.277606c0 105.742323 85.72236 191.468776 191.46366 191.468776l21.274536 0c105.741299 0 191.467753-85.726453 191.467753-191.468776l0-21.277606L468.68396 553.3692 277.216207 553.3692 255.941672 553.3692 255.941672 553.3692z" p-id="4439"></path><path d="M277.220301 64.065108l-21.273513 0c-105.741299 0-191.467753 85.72236-191.467753 191.469799l0 21.273513c0 105.736183 85.726453 191.462636 191.467753 191.462636l21.273513 0 191.464683 0L468.684984 276.80842l0-21.273513C468.684984 149.787468 382.963647 64.065108 277.220301 64.065108L277.220301 64.065108z" p-id="4440"></path><path d="M766.521323 64.065108l-21.273513 0c-105.747439 0-191.464683 85.72236-191.464683 191.469799l0 21.273513 0 191.462636 191.464683 0 21.273513 0c105.741299 0 191.46366-85.726453 191.46366-191.462636l0-21.273513C957.984982 149.787468 872.267738 64.065108 766.521323 64.065108L766.521323 64.065108z" p-id="4441"></path><path d="M915.43898 298.080909" p-id="4442"></path></svg>